<svg width="83" height="45" viewBox="0 0 83 45" fill="none" xmlns="http://www.w3.org/2000/svg">
<path d="M45.8887 10.5059C45.1074 11.0755 44.3424 11.6859 43.5938 12.3369C42.8451 12.988 42.1289 13.6553 41.4453 14.3389C40.7617 15.0225 40.1107 15.7061 39.4922 16.3896C38.89 17.0732 38.3366 17.7324 37.832 18.3672C37.2135 19.1159 36.6276 19.8564 36.0742 20.5889C35.5208 21.3213 34.9919 22.0618 34.4873 22.8105C35.1709 23.7546 35.8464 24.6742 36.5137 25.5693C37.1973 26.4482 37.8809 27.3271 38.5645 28.2061C39.1341 28.9385 39.7282 29.6953 40.3467 30.4766C40.9814 31.2415 41.6162 31.9902 42.251 32.7227C42.8857 33.4551 43.5042 34.1468 44.1064 34.7979C44.7249 35.4326 45.3027 35.986 45.8398 36.458L45.8643 42H26.5283L19.6191 26.3506V42H0.869141V31.4043L3.99414 30.7939V15.7061L0.869141 15.0957V4.5H19.6191V19.5391L26.5283 4.5H45.8643L45.8887 10.5059Z" fill="black"/>
<path d="M77.6875 4.5V17H73.5859C73.3092 16.6419 72.9919 16.2757 72.6338 15.9014C72.2757 15.527 71.877 15.1934 71.4375 14.9004C70.998 14.5911 70.5179 14.347 69.9971 14.168C69.4762 13.9727 68.9147 13.875 68.3125 13.875V30.7939L71.4375 31.4043V42H49.5625V31.4043L52.6875 30.7939V13.875C52.0853 13.875 51.5238 13.9727 51.0029 14.168C50.4821 14.347 50.002 14.5911 49.5625 14.9004C49.123 15.1934 48.7243 15.527 48.3662 15.9014C48.0081 16.2757 47.6908 16.6419 47.4141 17H43.3125V4.5H77.6875Z" fill="black"/>
</svg>
